<?xml version="1.0" standalone="no"?>
<!DOCTYPE svg PUBLIC "-//W3C//DTD SVG 20010904//EN"
 "http://www.w3.org/TR/2001/REC-SVG-20010904/DTD/svg10.dtd">
<svg version="1.0" xmlns="http://www.w3.org/2000/svg"
 width="900.000000pt" height="900.000000pt" viewBox="0 0 900.000000 900.000000"
 preserveAspectRatio="xMidYMid meet">
<metadata>
Created by potrace 1.10, written by Peter Selinger 2001-2011
</metadata>
<g transform="translate(0.000000,900.000000) scale(0.100000,-0.100000)"
fill="#4406ef" stroke="none">
<path d="M3245 6943 c-11 -2 -259 -4 -551 -5 l-530 -3 -42 -28 c-44 -29 -65
-65 -78 -138 -6 -34 -12 -1996 -13 -4104 0 -253 6 -466 14 -501 10 -47 66
-101 116 -114 35 -10 302 -20 489 -20 14 0 112 0 219 0 106 0 201 4 210 9 9 5
37 5 66 -1 28 -5 57 -9 65 -9 368 6 733 7 797 2 47 -4 86 -4 88 -1 5 8 626 7
640 -1 6 -3 66 -3 135 1 99 5 686 4 920 -2 54 -1 438 0 565 1 76 1 176 0 295
-2 14 0 63 5 109 10 129 17 173 61 185 185 5 53 8 890 4 1203 -1 87 1 1039 2
1070 2 50 2 138 0 333 -2 102 2 158 9 165 16 16 14 40 -4 33 -13 -5 -14 17 -8
182 4 103 6 228 5 277 -4 224 -3 254 10 274 11 17 10 25 -1 43 -11 18 -14 114
-17 499 -2 316 -6 491 -14 519 -11 41 -39 75 -89 108 -22 15 -188 16 -1800 17
-977 0 -1785 -1 -1796 -2z m3615 -2453 l0 -2370 -2370 0 -2370 0 0 2370 0
2370 2370 0 2370 0 0 -2370z"/>
<path d="M2529 6459 c-9 -5 -14 -3927 -5 -3936 2 -3 711 -6 781 -3 10 0 15
3940 5 3940 -80 4 -775 3 -781 -1z m586 -395 l0 -199 -199 0 -199 1 -1 198
c-1 109 0 198 1 199 1 1 91 2 200 1 l198 -1 0 -199z m-392 -264 c54 -32 92
-40 126 -27 23 8 36 8 55 -3 22 -11 32 -11 66 0 31 10 46 11 66 1 23 -10 29
-9 51 13 33 33 58 40 91 27 26 -11 27 -15 30 -98 2 -71 -2 -96 -20 -140 -25
-61 -48 -68 -95 -30 -28 23 -31 23 -183 16 -160 -7 -209 -18 -247 -51 -12 -11
-26 -18 -31 -14 -10 6 -17 300 -7 316 10 17 62 11 98 -10z m393 -521 l-1 -201
-199 0 -199 -1 -1 202 -1 201 201 0 201 0 -1 -201z m-456 -229 c0 -21 136 -60
208 -60 26 0 53 -4 61 -9 10 -6 25 -4 43 5 16 8 38 12 54 8 18 -5 40 2 75 21
47 25 51 26 69 10 10 -9 23 -36 29 -61 10 -37 9 -49 -4 -67 -21 -29 -21 -111
0 -103 16 6 21 -21 7 -39 -25 -35 -40 -37 -85 -11 -32 19 -56 25 -94 25 -28
-1 -55 1 -60 4 -5 3 -59 2 -120 -2 -86 -7 -120 -14 -151 -31 -67 -38 -70 -32
-74 142 -2 84 -2 159 0 166 5 14 42 16 42 2z m455 -560 l0 -203 -199 0 -200 0
0 202 c-1 112 0 203 1 204 1 1 91 1 200 1 l198 -1 0 -203z m-408 -257 c32 -25
48 -29 137 -34 57 -4 113 -2 129 3 19 7 37 6 57 -2 26 -11 32 -9 64 15 20 15
50 28 68 28 29 2 32 -1 34 -29 1 -17 7 -47 15 -67 9 -26 10 -39 2 -49 -13 -15
-20 -104 -10 -114 15 -15 6 -32 -20 -37 -20 -4 -41 2 -73 21 -43 27 -49 27
-176 26 -133 -2 -212 -17 -256 -48 -30 -22 -55 -22 -38 -1 10 13 10 19 -3 33
-23 26 -24 238 -1 264 22 24 29 23 71 -9z m408 -532 l1 -201 -201 0 -200 0 2
197 c1 109 2 200 2 203 1 3 90 4 198 3 l198 -1 0 -201z m-393 -260 c36 -17 66
-22 120 -22 40 1 107 1 148 1 54 1 86 7 113 21 47 24 51 24 87 -3 29 -21 39
-51 21 -62 -14 -9 -21 -77 -10 -98 14 -26 4 -77 -21 -106 -18 -21 -21 -22 -47
-9 -15 8 -36 24 -47 36 -15 16 -23 18 -38 10 -15 -8 -28 -7 -52 5 -26 12 -52
14 -117 10 -72 -5 -95 -12 -162 -46 -43 -22 -82 -37 -85 -33 -13 13 -21 219
-10 265 16 71 16 71 35 61 10 -5 39 -18 65 -30z m393 -525 l0 -200 -199 1
-199 0 -1 197 c-1 109 0 198 1 199 1 1 91 2 200 2 l198 0 0 -199z"/>
<path d="M3709 6460 c0 -3 0 -225 0 -493 l-1 -488 782 1 c430 0 785 2 789 5 5
2 4 26 -1 52 -5 27 -8 245 -6 486 l2 437 -782 3 c-430 1 -782 0 -783 -3z
m1413 -106 c18 -3 32 -17 43 -41 16 -32 17 -73 16 -357 l-2 -321 -34 -35 -35
-34 -602 1 c-332 0 -614 3 -628 5 -35 6 -50 16 -50 34 0 8 -10 35 -21 60 -16
34 -19 48 -10 57 14 14 14 120 0 134 -7 7 -9 31 -5 65 3 29 8 80 9 113 2 33 7
68 11 77 9 20 -1 41 -15 33 -5 -4 -9 26 -9 70 0 50 4 74 10 70 6 -4 18 11 28
34 15 36 21 40 57 44 59 6 1205 -2 1237 -9z"/>
<path d="M5674 6458 c-8 -12 -9 -3938 -1 -3938 65 -3 780 0 783 3 6 5 5 3929
0 3934 -7 7 -778 8 -782 1z m589 -393 l1 -199 -199 -1 -199 0 0 198 c-1 109 0
199 1 200 1 1 90 2 199 1 l197 -1 0 -198z m-421 -250 c16 -14 37 -25 47 -25 9
0 25 -6 36 -13 28 -22 281 -14 306 9 24 22 109 32 109 13 0 -8 4 -52 9 -99 11
-97 4 -158 -21 -173 -13 -9 -28 -5 -65 13 -44 22 -59 24 -178 23 -71 -1 -145
-2 -164 -3 -34 -1 -68 -18 -107 -53 -18 -15 -24 -16 -30 -5 -10 16 -19 278
-10 313 8 32 30 32 68 0z m422 -530 c-1 -108 -4 -198 -7 -201 -4 -4 -317 -8
-384 -4 -5 0 -8 90 -8 200 l0 200 200 0 200 0 -1 -195z m88 -247 c7 -21 1
-261 -7 -290 -5 -18 -14 -28 -26 -28 -10 0 -19 4 -19 9 0 22 -89 41 -205 45
-132 4 -201 -6 -257 -37 -60 -33 -67 -20 -66 136 0 73 2 140 5 150 6 23 41 22
83 -5 38 -24 37 -23 221 -34 l127 -7 58 37 c62 39 79 43 86 24z m-88 -548 l0
-203 -199 0 -199 0 -1 202 c0 112 1 203 2 204 1 1 90 1 199 1 l198 -1 0 -203z
m-438 -241 c3 -6 27 -20 53 -31 39 -17 69 -20 203 -21 155 0 156 0 188 26 35
30 43 32 69 17 16 -8 18 -22 16 -117 -1 -78 -6 -117 -19 -140 -19 -38 -36 -41
-82 -13 -27 17 -56 22 -166 27 -145 6 -180 0 -244 -43 -57 -39 -67 -22 -72
120 -5 140 1 186 28 186 10 0 22 -5 26 -11z m431 -353 c3 -3 6 -93 7 -200 l1
-196 -200 0 -200 0 0 197 c0 109 3 200 7 203 8 7 378 3 385 -4z m-424 -440
c67 -44 327 -57 411 -22 50 21 79 20 100 -3 14 -16 17 -36 15 -122 -2 -88 -5
-107 -22 -126 -27 -30 -35 -29 -81 8 l-38 32 -148 -1 -148 -1 -54 -33 c-29
-18 -58 -39 -64 -47 -20 -26 -27 7 -31 143 -5 128 4 186 27 186 6 0 21 -6 33
-14z m430 -541 l0 -199 -198 0 -199 0 0 198 c-1 109 0 198 1 199 1 1 90 2 199
2 l198 -1 -1 -199z"/>
<path d="M3710 5085 c-1 0 -1 -267 -1 -593 l-1 -593 782 0 782 0 0 591 0 591
-781 2 c-430 1 -781 2 -781 2z m1417 -113 c12 -6 29 -27 38 -44 15 -29 16 -81
16 -441 -1 -244 -5 -416 -11 -427 -5 -10 -26 -28 -46 -41 -31 -19 -49 -22
-128 -21 -50 1 -100 2 -111 3 -11 1 -236 -1 -500 -5 -264 -4 -493 -3 -510 2
-41 11 -60 53 -58 129 1 35 -2 65 -8 68 -12 8 -12 192 1 200 13 8 13 95 1 95
-5 0 -12 -6 -15 -12 -3 -7 -4 29 -2 80 2 52 9 99 15 105 13 13 15 37 2 37 -5
0 -12 -8 -14 -17 -3 -10 -5 3 -6 30 0 26 3 47 9 47 11 0 25 68 16 78 -4 3 -11
0 -16 -8 -21 -33 -9 29 16 84 20 43 32 57 52 62 15 3 32 7 37 9 6 2 278 2 605
1 446 -1 600 -5 617 -14z"/>
<path d="M3712 3502 c-4 -1 -6 -223 -6 -492 l2 -491 783 0 784 0 -3 428 c-1
235 1 454 6 486 6 41 6 60 -2 63 -12 5 -1550 11 -1564 6z m1318 -91 l86 0 33
-42 c24 -29 33 -51 32 -73 -1 -17 -2 -163 -4 -324 l-2 -294 -33 -29 -32 -29
-578 -2 c-317 -1 -595 -2 -617 -1 -31 2 -47 9 -71 36 l-31 33 0 198 c-1 129
-5 202 -12 209 -14 14 -14 54 -1 62 16 10 12 87 -6 106 -10 12 -14 25 -9 36 5
12 9 14 12 6 9 -25 20 -12 26 29 4 28 14 50 29 63 23 20 35 20 558 18 294 -2
573 -3 620 -2z"/>
</g>
</svg>
